<?xml version="1.0" encoding="UTF-8" standalone="no"?>
<!-- Created with Inkscape (http://www.inkscape.org/) -->

<svg
   width="28.142956mm"
   height="27.666mm"
   viewBox="0 0 28.142956 27.666"
   version="1.1"
   id="svg1"
   inkscape:export-filename="logo-small.svg"
   inkscape:export-xdpi="96"
   inkscape:export-ydpi="96"
   xmlns:inkscape="http://www.inkscape.org/namespaces/inkscape"
   xmlns:sodipodi="http://sodipodi.sourceforge.net/DTD/sodipodi-0.dtd"
   xmlns="http://www.w3.org/2000/svg"
   xmlns:svg="http://www.w3.org/2000/svg">
  <sodipodi:namedview
     id="namedview1"
     pagecolor="#ffffff"
     bordercolor="#000000"
     borderopacity="0.25"
     inkscape:showpageshadow="2"
     inkscape:pageopacity="0.0"
     inkscape:pagecheckerboard="0"
     inkscape:deskcolor="#d1d1d1"
     inkscape:document-units="mm"
     inkscape:export-bgcolor="#ffffff00" />
  <defs
     id="defs1">
    <style
       class="style-fonts"
       id="style1">
      @font-face {
        font-family: &quot;Virgil&quot;;
        src: url(&quot;https://excalidraw.com/Virgil.woff2&quot;);
      }
      @font-face {
        font-family: &quot;Cascadia&quot;;
        src: url(&quot;https://excalidraw.com/Cascadia.woff2&quot;);
      }
      @font-face {
        font-family: &quot;Assistant&quot;;
        src: url(&quot;https://excalidraw.com/Assistant-Regular.woff2&quot;);
      }
    </style>
    <style
       class="style-fonts"
       id="style1-7">
      @font-face {
        font-family: &quot;Virgil&quot;;
        src: url(&quot;https://excalidraw.com/Virgil.woff2&quot;);
      }
      @font-face {
        font-family: &quot;Cascadia&quot;;
        src: url(&quot;https://excalidraw.com/Cascadia.woff2&quot;);
      }
      @font-face {
        font-family: &quot;Assistant&quot;;
        src: url(&quot;https://excalidraw.com/Assistant-Regular.woff2&quot;);
      }
    </style>
  </defs>
  <g
     inkscape:label="Layer 1"
     inkscape:groupmode="layer"
     id="layer1"
     transform="translate(-14.448711,-58.26607)">
    <!-- svg-source:excalidraw -->
    <g
       stroke-linecap="round"
       transform="matrix(0.26458333,0,0,0.26458333,14.581002,58.398362)"
       id="g2">
      <path
         d="M 0,0 H 52.42 V 51.4 H 0"
         stroke="none"
         stroke-width="0"
         fill="#0c5532"
         id="path1" />
      <path
         d="M 0,0 C 19.83,0 39.66,0 52.42,0 M 0,0 c 18.35,0 36.69,0 52.42,0 m 0,0 c 0,14.87 0,29.74 0,51.4 m 0,-51.4 c 0,18.6 0,37.19 0,51.4 m 0,0 c -13.03,0 -26.06,0 -52.42,0 m 52.42,0 c -19.43,0 -38.86,0 -52.42,0 m 0,0 C 0,34.09 0,16.79 0,0 M 0,51.4 C 0,35.05 0,18.7 0,0"
         stroke="#2f9e44"
         stroke-width="1"
         fill="none"
         id="path2" />
    </g>
    <g
       transform="matrix(0.26458333,0,0,0.26458333,17.811471,59.721272)"
       id="g3">
      <text
         x="14.000977"
         y="33.120705"
         font-family="Helvetica, 'Segoe UI Emoji'"
         font-size="36px"
         fill="#ffffff"
         text-anchor="middle"
         style="white-space:pre"
         direction="ltr"
         dominant-baseline="alphabetic"
         id="text2">O</text>
    </g>
    <g
       stroke-linecap="round"
       transform="matrix(0.26458333,0,0,0.26458333,28.589918,72.200192)"
       id="g4">
      <path
         d="M 0,0 H 52.42 V 51.4 H 0"
         stroke="none"
         stroke-width="0"
         fill="#0c5532"
         id="path3" />
      <path
         d="M 0,0 C 13.46,0 26.92,0 52.42,0 M 0,0 c 16.69,0 33.38,0 52.42,0 m 0,0 c 0,13.34 0,26.68 0,51.4 m 0,-51.4 c 0,18.89 0,37.79 0,51.4 m 0,0 c -15.03,0 -30.06,0 -52.42,0 m 52.42,0 c -10.76,0 -21.52,0 -52.42,0 m 0,0 C 0,34 0,16.61 0,0 M 0,51.4 C 0,32.96 0,14.53 0,0"
         stroke="#2f9e44"
         stroke-width="1"
         fill="none"
         id="path4" />
    </g>
    <g
       transform="matrix(0.26458333,0,0,0.26458333,34.201637,73.523112)"
       id="g5">
      <text
         x="5.0009766"
         y="33.120705"
         font-family="Helvetica, 'Segoe UI Emoji'"
         font-size="36px"
         fill="#ffffff"
         text-anchor="middle"
         style="white-space:pre"
         direction="ltr"
         dominant-baseline="alphabetic"
         id="text4">I</text>
    </g>
    <!-- svg-source:excalidraw -->
  </g>
</svg>
